<svg xmlns="http://www.w3.org/2000/svg" width="64" height="64" fill="none" viewBox="0 0 64 64">
  <title>Structured broken clock logo</title>
  <rect width="64" height="64" fill="#111118" rx="18"/>
  <path fill="url(#glow)" d="M49.4 14.6c8.7 8.7 8.8 22.8.1 31.5-8.6 8.7-22.8 8.8-31.5.1-8.8-8.6-8.8-22.8-.1-31.5 8.6-8.8 22.7-8.8 31.5-.1Z" opacity=".22"/>
  <path fill="#2A2635" d="m18.7 17.8 7.1 6.2-2.7 7.7-8 4.5a18.6 18.6 0 0 1 3.6-18.4Z"/>
  <path fill="#2A2635" d="m29.1 10.7 3.2 10-6.5 3.3-7.1-6.2a18.4 18.4 0 0 1 10.4-7.1Z"/>
  <path fill="#2A2635" d="m43.8 13.5-4.1 9.3-7.4-2.1-3.2-10a18.3 18.3 0 0 1 14.7 2.8Z"/>
  <path fill="#2A2635" d="m52.4 27.4-9.5 2.8-3.2-7.4 4.1-9.3a18.5 18.5 0 0 1 8.6 13.9Z"/>
  <path fill="#2A2635" d="m49.8 42.4-9.4-5.3 2.5-6.9 9.5-2.8a18.5 18.5 0 0 1-2.6 15Z"/>
  <path fill="#2A2635" d="m36.7 51.1-3.1-10.3 6.8-3.7 9.4 5.3a18.4 18.4 0 0 1-13.1 8.7Z"/>
  <path fill="#2A2635" d="m20.9 47.4 6.5-8 6.2 1.4 3.1 10.3a18.5 18.5 0 0 1-15.8-3.7Z"/>
  <path fill="#2A2635" d="m15.1 36.2 8-4.5 4.3 7.7-6.5 8a18.5 18.5 0 0 1-5.8-11.2Z"/>
  <path stroke="url(#rim)" stroke-linecap="round" stroke-width="4.4" d="M49.4 14.6c8.7 8.7 8.8 22.8.1 31.5-8.6 8.7-22.8 8.8-31.5.1-8.8-8.6-8.8-22.8-.1-31.5 8.6-8.8 22.7-8.8 31.5-.1Z"/>
  <path stroke="#FCA5A5" stroke-linecap="round" stroke-width="4" d="M32 20.8v12.1l8.1 4.7"/>
  <circle cx="32" cy="32.9" r="3.9" fill="#FFE4E6"/>
  <path stroke="#FFE4E6" stroke-linecap="round" stroke-width="2.2" d="M31.9 14.9v2.7M31.9 48.3V51M15.2 32.9h2.7M46.1 32.9h2.7"/>
  <path fill="#FB7185" d="m9.7 9.5 7.6 1.9-5.7 5.2-3.2-1.1-1-3.4 2.3-2.6Z"/>
  <path fill="#C4B5FD" d="m54.9 8.2 1.3 8.2-7.5-3.4-.4-3.4 3.1-2.3 3.5.9Z"/>
  <path fill="#67E8F9" d="m58 48.2-6.8 4.1-1.1-7.3 2.6-2.2 3.7 1.3 1.6 4.1Z"/>
  <path fill="#FDBA74" d="m11.1 49.2 7.8-2.6-2.5 7.6-3.3 1-2.7-2.6.7-3.4Z"/>
  <path fill="#F9A8D4" d="m5.4 31.8 6.4-2.8-.6 6.9-2.5 1.8-3.2-1.9-.1-4Z"/>
  <path fill="#A7F3D0" d="m47 57.5-5.7-4.2 6.8-2 2.7 1.5.1 3.7-3.9 1Z"/>
  <path stroke="#FFFFFF" stroke-linecap="round" stroke-opacity=".54" stroke-width="1.4" d="m24.4 13.8 3.4 8.3M45.7 20.1l-6.3 5.8M21 43.7l5.6-5.1M41.7 43.8l-5.1-5.6"/>
  <defs>
    <linearGradient id="rim" x1="14" x2="53.5" y1="13.7" y2="48.7" gradientUnits="userSpaceOnUse">
      <stop stop-color="#C4B5FD"/>
      <stop offset=".48" stop-color="#FB7185"/>
      <stop offset="1" stop-color="#67E8F9"/>
    </linearGradient>
    <radialGradient id="glow" cx="0" cy="0" r="1" gradientTransform="matrix(0 27.5 -27.5 0 34 31.5)" gradientUnits="userSpaceOnUse">
      <stop stop-color="#FB7185"/>
      <stop offset=".56" stop-color="#8B5CF6"/>
      <stop offset="1" stop-color="#22D3EE"/>
    </radialGradient>
  </defs>
</svg>
